<svg xmlns="http://www.w3.org/2000/svg" width="20" height="17.138" viewBox="0 0 20 17.138">
  <path style="fill:white;" id="md-eye-off" d="M12.252,8.106A4.533,4.533,0,0,1,16.8,12.619a4.349,4.349,0,0,1-.326,1.652L19.13,16.9a10.669,10.669,0,0,0,3.12-4.285A10.771,10.771,0,0,0,8.624,6.482l1.964,1.951a4.5,4.5,0,0,1,1.665-.326ZM3.16,5.647,5.236,7.7l.42.415a10.617,10.617,0,0,0-3.405,4.5,10.787,10.787,0,0,0,13.983,6.007l.384.38,2.665,2.633,1.156-1.147L4.312,4.5Zm5.026,4.985,1.41,1.4a2.568,2.568,0,0,0-.072.585,2.714,2.714,0,0,0,2.727,2.7,2.541,2.541,0,0,0,.589-.072l1.41,1.4A4.525,4.525,0,0,1,7.7,12.609a4.459,4.459,0,0,1,.482-1.977Zm3.918-.7,2.865,2.843.018-.143a2.714,2.714,0,0,0-2.727-2.7l-.156,0Z" transform="translate(-2.25 -4.5)" fill="#0b4f26"/>
</svg>
