<svg xmlns="http://www.w3.org/2000/svg" width="27" height="20" viewBox="0 0 27 20">
  <g id="Group_38082" data-name="Group 38082" transform="translate(-1268.416 -244.381)">
    <path id="Path_15266" data-name="Path 15266" d="M1373.863,102.5a1.286,1.286,0,0,0-1.788,0,1.214,1.214,0,0,0,0,1.746,10.976,10.976,0,0,1,0,15.774,1.207,1.207,0,0,0,0,1.746,1.286,1.286,0,0,0,.88.372,1.17,1.17,0,0,0,.88-.372A13.414,13.414,0,0,0,1373.863,102.5Z" transform="translate(-82.511 142.246)" fill="#fff"/>
    <path id="Path_15267" data-name="Path 15267" d="M1293.863,182.011a1.3,1.3,0,0,0-1.789,0,1.18,1.18,0,0,0,0,1.717,5.147,5.147,0,0,1,0,7.49,1.173,1.173,0,0,0,0,1.717,1.3,1.3,0,0,0,.88.366,1.18,1.18,0,0,0,.88-.366,7.468,7.468,0,0,0,.029-10.922Z" transform="translate(-6.489 66.89)" fill="#fff"/>
    <path id="Path_15268" data-name="Path 15268" d="M964.867,104.243a1.214,1.214,0,0,0,0-1.746,1.286,1.286,0,0,0-1.788,0,13.4,13.4,0,0,0,0,19.237,1.286,1.286,0,0,0,.88.372,1.17,1.17,0,0,0,.88-.372,1.207,1.207,0,0,0,0-1.746A10.967,10.967,0,0,1,964.867,104.243Z" transform="translate(309.406 142.246)" fill="#fff"/>
    <path id="Path_15269" data-name="Path 15269" d="M1075.431,183.728a1.18,1.18,0,0,0,0-1.717,1.3,1.3,0,0,0-1.788,0,7.514,7.514,0,0,0,0,10.922,1.3,1.3,0,0,0,.88.366,1.209,1.209,0,0,0,.88-2.083,5.2,5.2,0,0,1,.029-7.49Z" transform="translate(202.795 66.89)" fill="#fff"/>
    <path id="Path_15270" data-name="Path 15270" d="M1184.582,254.726a2.356,2.356,0,1,1-2.356-2.356,2.356,2.356,0,0,1,2.356,2.356" transform="translate(99.693 -0.364)" fill="#fff"/>
  </g>
</svg>
