<svg xmlns="http://www.w3.org/2000/svg" width="91.551" height="52.999" viewBox="0 0 91.551 52.999">
  <g id="Group_38085" data-name="Group 38085" transform="translate(-975 -239)">
    <path id="Path_15271" data-name="Path 15271" d="M501.211,404.93l5.951,2.767a36.2,36.2,0,0,1-4.763,5.874,2.993,2.993,0,0,1-2.276.986,3.288,3.288,0,0,1-2.276-.986,3.252,3.252,0,0,1,0-4.627A29.731,29.731,0,0,0,501.211,404.93Z" transform="translate(543.794 -122.559)" fill="#ff4d4d"/>
    <path id="Path_15272" data-name="Path 15272" d="M511.48,121.689l-5.951-2.769a29.565,29.565,0,0,0-7.646-28.569,3.272,3.272,0,0,1,4.627-4.627A36.071,36.071,0,0,1,511.48,121.689Z" transform="translate(543.755 154.234)" fill="#ff4d4d"/>
    <path id="Path_15273" data-name="Path 15273" d="M417.634,355.62l6.166,2.869a20.391,20.391,0,0,1-1.471,1.6,2.994,2.994,0,0,1-2.276.986,3.289,3.289,0,0,1-2.276-.986A3.251,3.251,0,0,1,417.634,355.62Z" transform="translate(613.017 -79.93)" fill="#ff4d4d"/>
    <path id="Path_15274" data-name="Path 15274" d="M428.182,183.906l-6.212-2.891a14.309,14.309,0,0,0-4.147-11.124,3.272,3.272,0,1,1,4.627-4.627A20.773,20.773,0,0,1,428.182,183.906Z" transform="translate(612.97 85.469)" fill="#ff4d4d"/>
    <path id="Path_15275" data-name="Path 15275" d="M99.243,239.136a2.994,2.994,0,0,1-2.276.986,3.289,3.289,0,0,1-2.276-.986,36.113,36.113,0,0,1-9.007-35.886l5.985,2.784a29.47,29.47,0,0,0,7.574,28.474,3.251,3.251,0,0,1,0,4.628Z" transform="translate(900.601 51.8)" fill="#ff4d4d"/>
    <path id="Path_15276" data-name="Path 15276" d="M132.8,94.387l-6-2.792a35.855,35.855,0,0,1,4.749-5.867,3.271,3.271,0,1,1,4.625,4.628A29.768,29.768,0,0,0,132.8,94.387Z" transform="translate(863.742 154.23)" fill="#ff4d4d"/>
    <path id="Path_15277" data-name="Path 15277" d="M207.071,270.086a2.993,2.993,0,0,1-2.276.986,3.289,3.289,0,0,1-2.276-.986,20.8,20.8,0,0,1-5.729-18.576l6.231,2.9a14.305,14.305,0,0,0,4.049,11.051,3.251,3.251,0,0,1,0,4.627Z" transform="translate(803.547 10.077)" fill="#ff4d4d"/>
    <path id="Path_15278" data-name="Path 15278" d="M236.731,169.459l-6.2-2.885a20.966,20.966,0,0,1,1.47-1.626,3.271,3.271,0,1,1,4.732,4.518Z" transform="translate(774.064 85.789)" fill="#ff4d4d"/>
    <path id="Path_15279" data-name="Path 15279" d="M103.343,154.881l-.121.259a2.906,2.906,0,0,1-3.859,1.409l-10.278-4.782-5.9-2.746-8.06-3.75-6-2.792L60.7,138.562a5.518,5.518,0,0,1-2.864.8h-.259a5.54,5.54,0,0,1-5.21-4.667l-8.448-3.928-6.046-2.812-7.944-3.706-5.948-2.765-10.244-4.766a2.9,2.9,0,0,1-1.409-3.859l.121-.259a2.906,2.906,0,0,1,3.859-1.409l10.234,4.759,5.952,2.769,7.941,3.694,6.02,2.805,8.426,3.92a5.518,5.518,0,0,1,2.953-.852h.035a5.521,5.521,0,0,1,4.179,1.945h0a5.512,5.512,0,0,1,1.269,2.833h0l8.37,3.895,6.023,2.8,8.029,3.733,5.9,2.747,10.284,4.786a2.9,2.9,0,0,1,1.409,3.857Z" transform="translate(962.937 131.627)" fill="#ff4d4d"/>
    <path id="Path_15280" data-name="Path 15280" d="M319.889,242.794a7.444,7.444,0,1,1-7.444-7.444,7.444,7.444,0,0,1,7.444,7.444" transform="translate(708.333 22.7)" fill="#ff4d4d"/>
  </g>
</svg>
