<svg xmlns="http://www.w3.org/2000/svg" width="28" height="27" viewBox="0 0 28 27">
  <path id="upload" d="M21.538,23.76a1.093,1.093,0,1,0-.32.76,1.04,1.04,0,0,0,.32-.76Zm4.307,0a1.093,1.093,0,1,0-.32.76A1.04,1.04,0,0,0,25.846,23.76ZM28,19.98v5.4A1.612,1.612,0,0,1,26.384,27H1.615a1.556,1.556,0,0,1-1.144-.473A1.564,1.564,0,0,1,0,25.38v-5.4a1.564,1.564,0,0,1,.471-1.147,1.556,1.556,0,0,1,1.144-.473H8.8a3.325,3.325,0,0,0,1.186,1.552,3.088,3.088,0,0,0,1.86.608h4.307a3.081,3.081,0,0,0,1.86-.608A3.33,3.33,0,0,0,19.2,18.36h7.185A1.612,1.612,0,0,1,28,19.98ZM22.531,9.045a1.006,1.006,0,0,1-.992.675H17.231v7.56a1.093,1.093,0,0,1-1.077,1.08H11.846a1.093,1.093,0,0,1-1.077-1.08V9.72H6.462a1,1,0,0,1-.992-.675A.961.961,0,0,1,5.7,7.881L13.242.321a1.055,1.055,0,0,1,1.515,0L22.3,7.88a.961.961,0,0,1,.236,1.165Z" fill="#0b4f26"/>
</svg>
