<svg xmlns="http://www.w3.org/2000/svg" width="20" height="13.333" viewBox="0 0 20 13.333">
  <g id="Group_38550" data-name="Group 38550" transform="translate(-1273 -378)">
    <path style="fill:white;" id="Path_15468" data-name="Path 15468" d="M18.93,16.215A2.715,2.715,0,1,1,16.215,13.5,2.715,2.715,0,0,1,18.93,16.215Z" transform="translate(1266.785 368.451)" fill="#fff"/>
    <path style="fill:white;" id="Path_15469" data-name="Path 15469" d="M16.909,8.633A10.125,10.125,0,0,0,11.115,6.75a9.778,9.778,0,0,0-5.275,1.6,17.781,17.781,0,0,0-4.715,5.063,16.082,16.082,0,0,0,4.175,4.8,9.974,9.974,0,0,0,11.62,0,15.978,15.978,0,0,0,4.206-4.8A16.188,16.188,0,0,0,16.909,8.633Zm-5.784,8.784a4,4,0,1,1,4-4A4,4,0,0,1,11.125,17.417Z" transform="translate(1271.875 371.25)" fill="#fff"/>
  </g>
</svg>
